# xmcd
#
# Track frame offsets:
#        150
#        18575
#        33877
#        50795
#        68337
#        83735
#        101265
#        114680
#        134985
#        148637
#        166907
#        183882
#        202662
#        218957
#        234807
#        251820
#        269475
#        294352
#
# Disc length: 4267 seconds
#
# Revision: 0
# Processed by: cddbd v1.5.1PL0 Copyright (c) Steve Scherf et al.
# Submitted via: ExactAudioCopy v0.95a5
#
DISCID=fe10a912
DTITLE=Keri Noble - fearless special edition
DYEAR=2005
DGENRE=Blues
TTITLE0=Look at Me
TTITLE1=Talk to Me
TTITLE2=Piece of My Heart
TTITLE3=A Dream About You
TTITLE4=About Me
TTITLE5=Let It Rain
TTITLE6=Falling
TTITLE7=Love Is All I Know
TTITLE8=Answered Prayer
TTITLE9=Bartender
TTITLE10=I Won't
TTITLE11=If No One Will Listen
TTITLE12=Moving To Dallas
TTITLE13=About Me(New ver.)
TTITLE14=I Won't(New ver.)
TTITLE15=Get To You
TTITLE16=This Christmas Time
TTITLE17=Talk to Me Video
EXTD=
EXTT0=
EXTT1=
EXTT2=
EXTT3=
EXTT4=
EXTT5=
EXTT6=
EXTT7=
EXTT8=
EXTT9=
EXTT10=
EXTT11=
EXTT12=
EXTT13=
EXTT14=
EXTT15=
EXTT16=
EXTT17=
PLAYORDER=
